<svg width="17" height="16" viewBox="0 0 17 16" fill="none" xmlns="http://www.w3.org/2000/svg">
<path fill-rule="evenodd" clip-rule="evenodd" d="M2.36343 2.36195C3.24343 1.43495 3.55443 1.17495 3.92943 1.05395C4.18895 0.985949 4.46112 0.982174 4.72243 1.04295C5.06643 1.14295 5.15743 1.21895 6.28543 2.34295C7.27643 3.32995 7.37543 3.43695 7.47043 3.62995C7.65208 3.96873 7.68046 4.36894 7.54843 4.72995C7.44843 5.00495 7.30643 5.18695 6.70543 5.78995L6.31343 6.18295C6.21048 6.28757 6.18629 6.44643 6.25343 6.57695C7.12437 8.06281 8.36 9.30189 9.84343 10.177C10.0142 10.2684 10.2245 10.2389 10.3634 10.104L10.7404 9.73295C10.9734 9.4941 11.2202 9.26905 11.4794 9.05895C11.8866 8.80896 12.3939 8.78666 12.8214 8.99995C13.0304 9.09995 13.0994 9.16195 14.1214 10.182C15.1754 11.233 15.2054 11.266 15.3214 11.507C15.5397 11.9059 15.5374 12.3891 15.3154 12.786C15.2024 13.01 15.1334 13.091 14.5404 13.697C14.1824 14.063 13.8454 14.397 13.7914 14.446C13.3022 14.851 12.6746 15.0497 12.0414 15C10.883 14.8944 9.76169 14.5363 8.75643 13.951C6.52956 12.7711 4.63383 11.0521 3.24243 8.95095C2.93937 8.51122 2.66994 8.04924 2.43643 7.56895C1.81001 6.49532 1.48653 5.27189 1.50043 4.02895C1.54825 3.37871 1.86008 2.77637 2.36343 2.36195Z" fill="#151539" stroke="#151539" stroke-width="1.5" stroke-linecap="round" stroke-linejoin="round"/>
</svg>
